<mxfile host="app.diagrams.net" modified="2021-07-09T12:19:19.886Z" agent="5.0 (Macintosh; Intel Mac OS X 10_15_7) AppleWebKit/537.36 (KHTML, like Gecko) Chrome/91.0.4472.114 Safari/537.36" etag="s4h5QGOLZZSNuHgve4Gj" version="14.8.5" type="github">
  <diagram id="MjzJiEYanBWDnPHwpc2g" name="Page-1">
    <mxGraphModel dx="946" dy="518" grid="1" gridSize="10" guides="1" tooltips="1" connect="1" arrows="1" fold="1" page="1" pageScale="1" pageWidth="827" pageHeight="1169" math="0" shadow="0">
      <root>
        <mxCell id="0" />
        <mxCell id="1" parent="0" />
        <mxCell id="DDSQYC7g45XuYIRpEcr3-13" style="edgeStyle=orthogonalEdgeStyle;rounded=0;orthogonalLoop=1;jettySize=auto;html=1;" edge="1" parent="1" source="DDSQYC7g45XuYIRpEcr3-1" target="DDSQYC7g45XuYIRpEcr3-2">
          <mxGeometry relative="1" as="geometry" />
        </mxCell>
        <mxCell id="DDSQYC7g45XuYIRpEcr3-1" value="1" style="ellipse;whiteSpace=wrap;html=1;aspect=fixed;" vertex="1" parent="1">
          <mxGeometry x="320" y="50" width="60" height="60" as="geometry" />
        </mxCell>
        <mxCell id="DDSQYC7g45XuYIRpEcr3-14" style="edgeStyle=orthogonalEdgeStyle;rounded=0;orthogonalLoop=1;jettySize=auto;html=1;entryX=0;entryY=0.5;entryDx=0;entryDy=0;" edge="1" parent="1" source="DDSQYC7g45XuYIRpEcr3-2" target="DDSQYC7g45XuYIRpEcr3-4">
          <mxGeometry relative="1" as="geometry" />
        </mxCell>
        <mxCell id="DDSQYC7g45XuYIRpEcr3-2" value="2" style="ellipse;whiteSpace=wrap;html=1;aspect=fixed;" vertex="1" parent="1">
          <mxGeometry x="420" y="50" width="60" height="60" as="geometry" />
        </mxCell>
        <mxCell id="DDSQYC7g45XuYIRpEcr3-16" style="edgeStyle=orthogonalEdgeStyle;rounded=0;orthogonalLoop=1;jettySize=auto;html=1;entryX=0;entryY=0.5;entryDx=0;entryDy=0;" edge="1" parent="1" source="DDSQYC7g45XuYIRpEcr3-3" target="DDSQYC7g45XuYIRpEcr3-6">
          <mxGeometry relative="1" as="geometry">
            <mxPoint x="269" y="170" as="sourcePoint" />
            <Array as="points">
              <mxPoint x="260" y="170" />
              <mxPoint x="260" y="170" />
            </Array>
          </mxGeometry>
        </mxCell>
        <mxCell id="DDSQYC7g45XuYIRpEcr3-17" style="edgeStyle=orthogonalEdgeStyle;rounded=0;orthogonalLoop=1;jettySize=auto;html=1;entryX=0;entryY=0.5;entryDx=0;entryDy=0;" edge="1" parent="1" source="DDSQYC7g45XuYIRpEcr3-3" target="DDSQYC7g45XuYIRpEcr3-1">
          <mxGeometry relative="1" as="geometry">
            <Array as="points">
              <mxPoint x="270" y="80" />
              <mxPoint x="270" y="80" />
            </Array>
          </mxGeometry>
        </mxCell>
        <mxCell id="DDSQYC7g45XuYIRpEcr3-3" value="GC root" style="rounded=0;whiteSpace=wrap;html=1;" vertex="1" parent="1">
          <mxGeometry x="180" y="20" width="60" height="380" as="geometry" />
        </mxCell>
        <mxCell id="DDSQYC7g45XuYIRpEcr3-15" style="edgeStyle=orthogonalEdgeStyle;rounded=0;orthogonalLoop=1;jettySize=auto;html=1;entryX=0;entryY=0.5;entryDx=0;entryDy=0;" edge="1" parent="1" source="DDSQYC7g45XuYIRpEcr3-4" target="DDSQYC7g45XuYIRpEcr3-5">
          <mxGeometry relative="1" as="geometry" />
        </mxCell>
        <mxCell id="DDSQYC7g45XuYIRpEcr3-4" value="3" style="ellipse;whiteSpace=wrap;html=1;aspect=fixed;" vertex="1" parent="1">
          <mxGeometry x="520" y="50" width="60" height="60" as="geometry" />
        </mxCell>
        <mxCell id="DDSQYC7g45XuYIRpEcr3-5" value="4" style="ellipse;whiteSpace=wrap;html=1;aspect=fixed;" vertex="1" parent="1">
          <mxGeometry x="610" y="50" width="60" height="60" as="geometry" />
        </mxCell>
        <mxCell id="DDSQYC7g45XuYIRpEcr3-18" style="edgeStyle=orthogonalEdgeStyle;rounded=0;orthogonalLoop=1;jettySize=auto;html=1;entryX=0;entryY=0.5;entryDx=0;entryDy=0;" edge="1" parent="1" source="DDSQYC7g45XuYIRpEcr3-6" target="DDSQYC7g45XuYIRpEcr3-7">
          <mxGeometry relative="1" as="geometry" />
        </mxCell>
        <mxCell id="DDSQYC7g45XuYIRpEcr3-6" value="5" style="ellipse;whiteSpace=wrap;html=1;aspect=fixed;" vertex="1" parent="1">
          <mxGeometry x="320" y="140" width="60" height="60" as="geometry" />
        </mxCell>
        <mxCell id="DDSQYC7g45XuYIRpEcr3-19" style="edgeStyle=orthogonalEdgeStyle;rounded=0;orthogonalLoop=1;jettySize=auto;html=1;entryX=0;entryY=0.5;entryDx=0;entryDy=0;" edge="1" parent="1" source="DDSQYC7g45XuYIRpEcr3-7" target="DDSQYC7g45XuYIRpEcr3-8">
          <mxGeometry relative="1" as="geometry" />
        </mxCell>
        <mxCell id="DDSQYC7g45XuYIRpEcr3-7" value="6" style="ellipse;whiteSpace=wrap;html=1;aspect=fixed;" vertex="1" parent="1">
          <mxGeometry x="420" y="140" width="60" height="60" as="geometry" />
        </mxCell>
        <mxCell id="DDSQYC7g45XuYIRpEcr3-8" value="7" style="ellipse;whiteSpace=wrap;html=1;aspect=fixed;" vertex="1" parent="1">
          <mxGeometry x="520" y="140" width="60" height="60" as="geometry" />
        </mxCell>
        <mxCell id="DDSQYC7g45XuYIRpEcr3-20" style="edgeStyle=orthogonalEdgeStyle;rounded=0;orthogonalLoop=1;jettySize=auto;html=1;entryX=0;entryY=0.5;entryDx=0;entryDy=0;" edge="1" parent="1" source="DDSQYC7g45XuYIRpEcr3-9" target="DDSQYC7g45XuYIRpEcr3-10">
          <mxGeometry relative="1" as="geometry" />
        </mxCell>
        <mxCell id="DDSQYC7g45XuYIRpEcr3-9" value="8" style="ellipse;whiteSpace=wrap;html=1;aspect=fixed;" vertex="1" parent="1">
          <mxGeometry x="320" y="230" width="60" height="60" as="geometry" />
        </mxCell>
        <mxCell id="DDSQYC7g45XuYIRpEcr3-10" value="9" style="ellipse;whiteSpace=wrap;html=1;aspect=fixed;" vertex="1" parent="1">
          <mxGeometry x="420" y="230" width="60" height="60" as="geometry" />
        </mxCell>
        <mxCell id="DDSQYC7g45XuYIRpEcr3-11" value="10" style="ellipse;whiteSpace=wrap;html=1;aspect=fixed;" vertex="1" parent="1">
          <mxGeometry x="320" y="310" width="60" height="60" as="geometry" />
        </mxCell>
      </root>
    </mxGraphModel>
  </diagram>
</mxfile>
